<?xml version="1.0" encoding="utf-8"?>
<!-- Generator: Adobe Illustrator 22.0.0, SVG Export Plug-In . SVG Version: 6.00 Build 0)  -->
<svg version="1.1" id="Layer_1" xmlns="http://www.w3.org/2000/svg" xmlns:xlink="http://www.w3.org/1999/xlink" x="0px" y="0px"
	 viewBox="0 0 600 300" style="enable-background:new 0 0 600 300;" xml:space="preserve">
<path id="path1" d="M552.3,288.7c2.1,4.9,10.2,8,17.7,7.2c7.6-0.6,14.2-5,14.5-10.2c0.5-4.6-4.4-9.1-11.1-10.3
	c-7.4-1.6-16.2,0.7-19.8,5.4C551.7,283.1,551.1,286,552.3,288.7"/>
<path id="path2" d="M478.8,275.8c2.9,6.8,14.2,11.1,24.5,10c10.5-0.9,19.7-6.9,20.1-14.1c0.7-6.4-5.4-12.7-15.3-14.2
	c-10.3-2.2-22.4,1-27.4,7.4c-2.7,3.3-3.5,7.2-1.8,10.8"/>
<path id="path3" d="M391.9,250.5c4.1,9.3,19.2,14.6,32.4,13.4c14.3-0.9,27.8-8.6,29.1-18.8c1.1-7.6-5.7-15.2-15.7-18.3
	c-16.2-5.5-37.7-0.4-44.7,10.9c-2.5,3.9-3.1,8.4-1.2,12.6"/>
<path id="path4" d="M159.9,27.1c31.7-40.4,106-15.4,111.2,3.4c9.6-11.4,25.1-20.3,44.8-24.3c31.3-6.4,64.1,1.4,84.5,18
	c46.4-8.2,87.2-1.6,107.4,37.8c9.8,21.4-1.5,43.9-26.1,58.8c1.2,1.9,2.3,3.8,3.2,5.7c14.2,31-12,63.8-58.4,73.2
	c-15.2,3.1-30.8,3.3-45.2,1c-10.7,21.2-37.2,39.1-73.2,46.4c-45,9.2-78.1,8.4-104.2-13.8c-8.6,4-31.7-2.3-42.2-0.2
	c-55.3,11.3-96.9,4.8-114.2-39.3c-8-20.1-11.4-31.8-11.4-31.8C-5,147.6-0.1,98.5,46.1,84C-7.3,56.1,65.8,1.9,122.4,13.6
	C136.5,16.6,159.9,27.1,159.9,27.1z"/>
</svg>
